<svg xmlns="http://www.w3.org/2000/svg" xmlns:xlink="http://www.w3.org/1999/xlink" width="500" zoomAndPan="magnify" viewBox="0 0 375 374.999991" height="500" preserveAspectRatio="xMidYMid meet" version="1.0"><defs><g/><clipPath id="c2fa42045f"><path d="M 72.835938 112.230469 L 196 112.230469 L 196 197.730469 L 72.835938 197.730469 Z M 72.835938 112.230469 " clip-rule="nonzero"/></clipPath><clipPath id="6b1f65739c"><path d="M 195 112.230469 L 281 112.230469 L 281 147 L 195 147 Z M 195 112.230469 " clip-rule="nonzero"/></clipPath><clipPath id="4b9c26b3da"><path d="M 195 133 L 297.835938 133 L 297.835938 184 L 195 184 Z M 195 133 " clip-rule="nonzero"/></clipPath><clipPath id="f9467989fd"><path d="M 195 170 L 281 170 L 281 197.730469 L 195 197.730469 Z M 195 170 " clip-rule="nonzero"/></clipPath></defs><g clip-path="url(#c2fa42045f)"><path fill="#00a2ff" d="M 195.410156 112.375 L 167.152344 112.375 C 165.609375 112.375 164.085938 112.535156 162.574219 112.847656 C 161.066406 113.160156 159.605469 113.625 158.191406 114.242188 C 156.777344 114.855469 155.4375 115.609375 154.179688 116.496094 C 152.921875 117.386719 151.765625 118.398438 150.714844 119.523438 L 130.976562 136.890625 L 105.414062 136.890625 C 104.488281 136.890625 103.5625 136.933594 102.644531 137.015625 C 101.722656 137.097656 100.804688 137.21875 99.894531 137.382812 C 98.984375 137.546875 98.082031 137.753906 97.191406 137.996094 C 96.300781 138.242188 95.421875 138.523438 94.554688 138.847656 C 93.6875 139.171875 92.835938 139.53125 92 139.929688 C 91.167969 140.332031 90.351562 140.765625 89.554688 141.238281 C 88.761719 141.710938 87.988281 142.214844 87.238281 142.757812 C 86.488281 143.296875 85.761719 143.871094 85.0625 144.476562 C 84.363281 145.082031 83.691406 145.714844 83.050781 146.382812 C 82.40625 147.046875 81.796875 147.738281 81.214844 148.460938 C 80.632812 149.179688 80.085938 149.921875 79.570312 150.691406 C 79.058594 151.460938 78.578125 152.25 78.132812 153.0625 C 77.691406 153.875 77.285156 154.703125 76.914062 155.550781 C 76.542969 156.398438 76.214844 157.261719 75.921875 158.140625 C 75.628906 159.015625 75.375 159.90625 75.160156 160.804688 C 74.949219 161.707031 74.773438 162.613281 74.644531 163.53125 L 72.835938 176.019531 C 72.835938 176.296875 72.863281 176.574219 72.917969 176.847656 C 72.972656 177.121094 73.054688 177.382812 73.160156 177.640625 C 73.265625 177.898438 73.398438 178.144531 73.550781 178.375 C 73.707031 178.605469 73.882812 178.820312 74.078125 179.019531 C 74.277344 179.214844 74.492188 179.390625 74.722656 179.546875 C 74.953125 179.699219 75.199219 179.832031 75.457031 179.9375 C 75.714844 180.042969 75.976562 180.125 76.25 180.179688 C 76.523438 180.234375 76.800781 180.261719 77.078125 180.261719 L 94.082031 180.261719 C 94.300781 181.464844 94.621094 182.640625 95.046875 183.789062 C 95.46875 184.9375 95.988281 186.039062 96.605469 187.09375 C 97.21875 188.152344 97.921875 189.148438 98.710938 190.082031 C 99.5 191.015625 100.367188 191.875 101.304688 192.660156 C 102.242188 193.445312 103.242188 194.140625 104.304688 194.75 C 105.363281 195.359375 106.46875 195.875 107.621094 196.289062 C 108.769531 196.707031 109.949219 197.023438 111.152344 197.234375 C 112.359375 197.445312 113.570312 197.550781 114.796875 197.550781 C 116.019531 197.550781 117.234375 197.445312 118.4375 197.234375 C 119.640625 197.023438 120.820312 196.707031 121.96875 196.289062 C 123.121094 195.875 124.226562 195.359375 125.285156 194.75 C 126.347656 194.140625 127.347656 193.445312 128.285156 192.660156 C 129.226562 191.875 130.089844 191.015625 130.878906 190.082031 C 131.667969 189.148438 132.371094 188.152344 132.984375 187.09375 C 133.601562 186.039062 134.121094 184.9375 134.546875 183.789062 C 134.96875 182.640625 135.289062 181.464844 135.507812 180.261719 L 195.410156 180.261719 Z M 195.410156 112.375 " fill-opacity="1" fill-rule="nonzero"/></g><g clip-path="url(#6b1f65739c)"><path fill="#ffffff" d="M 195.410156 118.035156 L 220.851562 118.035156 C 222.199219 118.039062 223.53125 118.175781 224.851562 118.453125 C 226.167969 118.726562 227.445312 119.132812 228.683594 119.671875 C 229.917969 120.207031 231.085938 120.863281 232.1875 121.640625 C 233.289062 122.417969 234.300781 123.296875 235.222656 124.28125 L 248.140625 135.667969 C 249.390625 136.765625 250.726562 137.742188 252.152344 138.601562 C 253.578125 139.457031 255.070312 140.175781 256.625 140.761719 C 258.183594 141.351562 259.777344 141.792969 261.414062 142.089844 C 263.050781 142.386719 264.703125 142.535156 266.363281 142.53125 L 268.421875 142.53125 C 268.632812 142.980469 268.894531 143.402344 269.203125 143.792969 C 269.507812 144.183594 269.855469 144.535156 270.242188 144.84375 C 270.628906 145.15625 271.046875 145.421875 271.496094 145.640625 C 271.941406 145.855469 272.40625 146.023438 272.890625 146.132812 C 273.375 146.246094 273.867188 146.304688 274.363281 146.304688 C 274.859375 146.308594 275.351562 146.253906 275.835938 146.144531 C 276.320312 146.035156 276.789062 145.875 277.234375 145.660156 C 277.683594 145.445312 278.101562 145.183594 278.492188 144.875 C 278.882812 144.566406 279.230469 144.214844 279.542969 143.828125 C 279.851562 143.441406 280.117188 143.023438 280.332031 142.574219 C 280.546875 142.125 280.710938 141.660156 280.820312 141.175781 C 280.933594 140.691406 280.988281 140.199219 280.988281 139.703125 C 280.988281 139.207031 280.933594 138.714844 280.820312 138.230469 C 280.710938 137.746094 280.546875 137.28125 280.332031 136.832031 C 280.117188 136.386719 279.851562 135.96875 279.542969 135.578125 C 279.230469 135.191406 278.882812 134.84375 278.492188 134.53125 C 278.101562 134.222656 277.683594 133.960938 277.234375 133.746094 C 276.789062 133.53125 276.320312 133.371094 275.835938 133.261719 C 275.351562 133.152344 274.859375 133.097656 274.363281 133.101562 C 273.867188 133.101562 273.375 133.160156 272.890625 133.273438 C 272.40625 133.382812 271.941406 133.550781 271.496094 133.765625 C 271.046875 133.984375 270.628906 134.25 270.242188 134.5625 C 269.855469 134.875 269.507812 135.226562 269.203125 135.613281 C 268.894531 136.003906 268.632812 136.425781 268.421875 136.875 L 266.363281 136.875 C 263.699219 136.875 261.117188 136.402344 258.621094 135.460938 C 256.125 134.519531 253.878906 133.167969 251.875 131.402344 L 239.246094 120.316406 C 238.0625 119.066406 236.765625 117.949219 235.355469 116.960938 C 233.941406 115.972656 232.445312 115.140625 230.863281 114.457031 C 229.28125 113.773438 227.648438 113.257812 225.964844 112.90625 C 224.277344 112.558594 222.570312 112.378906 220.851562 112.375 L 195.410156 112.375 Z M 195.410156 118.035156 " fill-opacity="1" fill-rule="nonzero"/></g><g clip-path="url(#4b9c26b3da)"><path fill="#ffffff" d="M 290.730469 151.3125 C 290.132812 151.3125 289.542969 151.390625 288.96875 151.550781 C 288.390625 151.710938 287.847656 151.945312 287.332031 152.25 C 286.820312 152.558594 286.359375 152.929688 285.945312 153.363281 C 285.535156 153.796875 285.1875 154.277344 284.90625 154.808594 L 245.304688 154.808594 C 244.96875 154.808594 244.636719 154.773438 244.308594 154.707031 C 243.980469 154.644531 243.660156 154.546875 243.351562 154.417969 C 243.039062 154.289062 242.746094 154.132812 242.46875 153.945312 C 242.1875 153.757812 241.929688 153.546875 241.695312 153.3125 C 241.457031 153.074219 241.246094 152.816406 241.058594 152.539062 C 240.871094 152.257812 240.714844 151.964844 240.585938 151.65625 C 240.457031 151.34375 240.359375 151.027344 240.292969 150.699219 C 240.226562 150.367188 240.195312 150.039062 240.195312 149.703125 C 240.195312 149.160156 240.167969 148.617188 240.113281 148.078125 C 240.058594 147.539062 239.980469 147 239.875 146.46875 C 239.765625 145.9375 239.636719 145.410156 239.476562 144.890625 C 239.320312 144.371094 239.136719 143.863281 238.929688 143.359375 C 238.71875 142.859375 238.488281 142.371094 238.230469 141.890625 C 237.976562 141.410156 237.695312 140.945312 237.394531 140.496094 C 237.09375 140.042969 236.769531 139.609375 236.425781 139.191406 C 236.082031 138.769531 235.71875 138.367188 235.335938 137.984375 C 234.949219 137.601562 234.546875 137.238281 234.128906 136.890625 C 233.710938 136.546875 233.273438 136.226562 232.824219 135.921875 C 232.371094 135.621094 231.90625 135.34375 231.429688 135.085938 C 230.949219 134.832031 230.460938 134.597656 229.957031 134.390625 C 229.457031 134.183594 228.945312 134 228.425781 133.84375 C 227.90625 133.683594 227.382812 133.550781 226.851562 133.445312 C 226.316406 133.339844 225.78125 133.257812 225.242188 133.207031 C 224.703125 133.152344 224.160156 133.125 223.617188 133.125 L 195.410156 133.125 L 195.410156 138.777344 L 223.617188 138.777344 C 224.332031 138.78125 225.042969 138.851562 225.746094 138.992188 C 226.449219 139.132812 227.132812 139.339844 227.792969 139.613281 C 228.457031 139.890625 229.085938 140.226562 229.679688 140.625 C 230.277344 141.023438 230.828125 141.476562 231.335938 141.980469 C 231.84375 142.488281 232.292969 143.039062 232.691406 143.636719 C 233.089844 144.234375 233.429688 144.863281 233.703125 145.523438 C 233.976562 146.1875 234.183594 146.867188 234.324219 147.570312 C 234.464844 148.273438 234.535156 148.984375 234.535156 149.703125 L 234.535156 170.539062 C 234.085938 170.753906 233.667969 171.011719 233.277344 171.320312 C 232.886719 171.628906 232.535156 171.976562 232.222656 172.363281 C 231.910156 172.75 231.648438 173.167969 231.429688 173.613281 C 231.210938 174.0625 231.046875 174.527344 230.933594 175.011719 C 230.820312 175.496094 230.765625 175.984375 230.761719 176.480469 C 230.761719 176.980469 230.816406 177.46875 230.921875 177.957031 C 231.03125 178.441406 231.195312 178.90625 231.410156 179.355469 C 231.625 179.804688 231.886719 180.222656 232.195312 180.613281 C 232.503906 181 232.851562 181.351562 233.242188 181.660156 C 233.628906 181.972656 234.046875 182.234375 234.496094 182.453125 C 234.941406 182.667969 235.40625 182.832031 235.894531 182.941406 C 236.378906 183.050781 236.867188 183.109375 237.363281 183.109375 C 237.863281 183.109375 238.351562 183.050781 238.835938 182.941406 C 239.320312 182.832031 239.789062 182.667969 240.234375 182.453125 C 240.683594 182.234375 241.101562 181.972656 241.488281 181.660156 C 241.878906 181.351562 242.226562 181 242.535156 180.613281 C 242.84375 180.222656 243.105469 179.804688 243.320312 179.355469 C 243.535156 178.90625 243.699219 178.441406 243.804688 177.957031 C 243.914062 177.46875 243.96875 176.980469 243.96875 176.484375 C 243.964844 175.984375 243.910156 175.496094 243.796875 175.011719 C 243.683594 174.527344 243.519531 174.0625 243.300781 173.613281 C 243.082031 173.167969 242.820312 172.75 242.507812 172.363281 C 242.195312 171.976562 241.84375 171.628906 241.453125 171.320312 C 241.0625 171.011719 240.644531 170.753906 240.195312 170.539062 L 240.195312 159.171875 C 241.789062 160.03125 243.492188 160.460938 245.304688 160.457031 L 284.640625 160.457031 C 284.792969 160.824219 284.980469 161.171875 285.195312 161.507812 C 285.410156 161.839844 285.65625 162.148438 285.929688 162.4375 C 286.199219 162.726562 286.496094 162.988281 286.816406 163.226562 C 287.136719 163.460938 287.472656 163.664062 287.832031 163.839844 C 288.1875 164.015625 288.554688 164.15625 288.9375 164.261719 C 289.320312 164.371094 289.707031 164.445312 290.105469 164.480469 C 290.5 164.519531 290.894531 164.523438 291.289062 164.488281 C 291.683594 164.453125 292.074219 164.386719 292.457031 164.28125 C 292.839844 164.179688 293.210938 164.042969 293.570312 163.871094 C 293.929688 163.699219 294.269531 163.5 294.589844 163.265625 C 294.914062 163.035156 295.210938 162.777344 295.488281 162.492188 C 295.761719 162.203125 296.011719 161.898438 296.230469 161.566406 C 296.449219 161.234375 296.636719 160.886719 296.796875 160.523438 C 296.953125 160.160156 297.074219 159.785156 297.164062 159.398438 C 297.253906 159.011719 297.308594 158.617188 297.328125 158.222656 C 297.347656 157.824219 297.328125 157.429688 297.277344 157.039062 C 297.226562 156.644531 297.136719 156.257812 297.015625 155.878906 C 296.894531 155.503906 296.738281 155.140625 296.550781 154.789062 C 296.363281 154.441406 296.148438 154.109375 295.898438 153.796875 C 295.652344 153.488281 295.378906 153.203125 295.082031 152.941406 C 294.78125 152.679688 294.460938 152.445312 294.121094 152.242188 C 293.78125 152.039062 293.425781 151.867188 293.054688 151.726562 C 292.683594 151.589844 292.300781 151.484375 291.910156 151.414062 C 291.519531 151.339844 291.125 151.304688 290.730469 151.304688 Z M 290.730469 151.3125 " fill-opacity="1" fill-rule="nonzero"/></g><path fill="#ffffff" d="M 216.3125 163.292969 C 216.703125 163.292969 217.09375 163.257812 217.480469 163.191406 C 217.867188 163.121094 218.242188 163.019531 218.609375 162.882812 C 218.980469 162.746094 219.332031 162.578125 219.667969 162.378906 C 220.007812 162.175781 220.324219 161.949219 220.621094 161.695312 C 220.921875 161.4375 221.191406 161.15625 221.441406 160.851562 C 221.6875 160.546875 221.90625 160.222656 222.097656 159.878906 C 222.285156 159.535156 222.441406 159.179688 222.570312 158.804688 C 222.695312 158.433594 222.785156 158.054688 222.84375 157.667969 C 222.902344 157.277344 222.925781 156.886719 222.914062 156.496094 C 222.902344 156.101562 222.855469 155.714844 222.777344 155.332031 C 222.695312 154.945312 222.582031 154.574219 222.433594 154.210938 C 222.285156 153.84375 222.105469 153.496094 221.898438 153.164062 C 221.6875 152.832031 221.449219 152.523438 221.183594 152.234375 C 220.921875 151.945312 220.632812 151.679688 220.320312 151.441406 C 220.007812 151.203125 219.675781 150.996094 219.328125 150.816406 C 218.980469 150.636719 218.617188 150.488281 218.242188 150.375 C 217.867188 150.261719 217.484375 150.179688 217.09375 150.132812 C 216.703125 150.085938 216.3125 150.078125 215.921875 150.101562 C 215.527344 150.125 215.140625 150.179688 214.761719 150.273438 C 214.378906 150.367188 214.007812 150.492188 213.648438 150.648438 C 213.289062 150.808594 212.949219 150.996094 212.625 151.214844 C 212.296875 151.4375 211.996094 151.683594 211.710938 151.957031 C 211.429688 152.230469 211.175781 152.527344 210.949219 152.84375 C 210.71875 153.164062 210.519531 153.5 210.351562 153.855469 L 195.410156 153.855469 L 195.410156 159.507812 L 210.351562 159.507812 C 210.617188 160.074219 210.957031 160.589844 211.371094 161.058594 C 211.785156 161.527344 212.253906 161.929688 212.78125 162.265625 C 213.308594 162.601562 213.875 162.855469 214.472656 163.03125 C 215.074219 163.207031 215.6875 163.292969 216.3125 163.292969 Z M 216.3125 163.292969 " fill-opacity="1" fill-rule="nonzero"/><g clip-path="url(#f9467989fd)"><path fill="#ffffff" d="M 274.363281 170.839844 C 273.738281 170.839844 273.128906 170.925781 272.527344 171.101562 C 271.929688 171.273438 271.367188 171.527344 270.839844 171.859375 C 270.3125 172.195312 269.839844 172.59375 269.429688 173.0625 C 269.015625 173.527344 268.675781 174.042969 268.40625 174.605469 L 262.289062 174.605469 C 261.148438 174.613281 260.035156 174.789062 258.945312 175.132812 C 257.855469 175.476562 256.84375 175.972656 255.90625 176.625 C 254.96875 177.273438 254.148438 178.050781 253.445312 178.949219 C 252.746094 179.847656 252.191406 180.832031 251.785156 181.898438 C 251.511719 182.628906 251.183594 183.332031 250.804688 184.011719 C 250.425781 184.691406 249.996094 185.335938 249.515625 185.949219 C 249.039062 186.5625 248.515625 187.136719 247.949219 187.671875 C 247.382812 188.207031 246.78125 188.695312 246.140625 189.140625 C 245.5 189.582031 244.832031 189.976562 244.132812 190.316406 C 243.433594 190.660156 242.710938 190.945312 241.96875 191.179688 C 241.226562 191.410156 240.472656 191.585938 239.703125 191.703125 C 238.933594 191.824219 238.160156 191.882812 237.378906 191.882812 C 236.601562 191.882812 235.828125 191.824219 235.058594 191.710938 C 234.289062 191.59375 233.53125 191.417969 232.789062 191.1875 C 232.046875 190.957031 231.324219 190.671875 230.625 190.328125 C 229.925781 189.988281 229.253906 189.597656 228.613281 189.15625 C 227.972656 188.714844 227.371094 188.226562 226.804688 187.691406 C 226.238281 187.15625 225.714844 186.585938 225.234375 185.972656 C 224.753906 185.359375 224.324219 184.714844 223.941406 184.035156 C 223.558594 183.355469 223.230469 182.652344 222.957031 181.925781 C 222.550781 180.863281 222 179.886719 221.296875 178.992188 C 220.597656 178.097656 219.78125 177.324219 218.847656 176.675781 C 217.914062 176.027344 216.90625 175.53125 215.824219 175.1875 C 214.742188 174.84375 213.632812 174.667969 212.496094 174.660156 L 195.410156 174.605469 L 195.410156 180.265625 L 212.480469 180.3125 C 213.042969 180.3125 213.597656 180.398438 214.136719 180.570312 C 214.675781 180.738281 215.175781 180.984375 215.640625 181.308594 C 216.101562 181.632812 216.507812 182.015625 216.855469 182.464844 C 217.199219 182.910156 217.46875 183.398438 217.667969 183.929688 C 218.042969 184.925781 218.492188 185.886719 219.015625 186.8125 C 219.539062 187.738281 220.125 188.621094 220.78125 189.457031 C 221.4375 190.296875 222.152344 191.078125 222.929688 191.808594 C 223.703125 192.539062 224.527344 193.203125 225.402344 193.808594 C 226.28125 194.414062 227.195312 194.949219 228.152344 195.414062 C 229.109375 195.878906 230.097656 196.269531 231.113281 196.585938 C 232.128906 196.902344 233.160156 197.136719 234.214844 197.296875 C 235.265625 197.457031 236.324219 197.535156 237.386719 197.535156 C 238.449219 197.535156 239.507812 197.453125 240.558594 197.292969 C 241.613281 197.128906 242.644531 196.890625 243.660156 196.574219 C 244.675781 196.253906 245.660156 195.863281 246.617188 195.394531 C 247.574219 194.925781 248.488281 194.390625 249.363281 193.785156 C 250.238281 193.179688 251.0625 192.511719 251.835938 191.78125 C 252.605469 191.050781 253.320312 190.265625 253.976562 189.425781 C 254.628906 188.585938 255.21875 187.703125 255.738281 186.777344 C 256.257812 185.847656 256.707031 184.886719 257.082031 183.890625 C 257.28125 183.359375 257.554688 182.871094 257.902344 182.421875 C 258.25 181.976562 258.65625 181.589844 259.121094 181.265625 C 259.585938 180.9375 260.089844 180.691406 260.628906 180.519531 C 261.167969 180.34375 261.722656 180.257812 262.289062 180.253906 L 268.40625 180.253906 C 268.574219 180.605469 268.773438 180.941406 269.003906 181.261719 C 269.230469 181.578125 269.488281 181.875 269.769531 182.148438 C 270.050781 182.421875 270.355469 182.667969 270.679688 182.886719 C 271.003906 183.105469 271.347656 183.292969 271.707031 183.453125 C 272.0625 183.609375 272.433594 183.734375 272.816406 183.828125 C 273.195312 183.917969 273.582031 183.976562 273.972656 184 C 274.367188 184.023438 274.757812 184.011719 275.144531 183.964844 C 275.535156 183.917969 275.917969 183.835938 276.292969 183.722656 C 276.667969 183.609375 277.027344 183.460938 277.378906 183.28125 C 277.726562 183.101562 278.058594 182.894531 278.367188 182.65625 C 278.679688 182.417969 278.96875 182.15625 279.234375 181.863281 C 279.496094 181.574219 279.734375 181.265625 279.945312 180.933594 C 280.152344 180.601562 280.332031 180.253906 280.476562 179.890625 C 280.625 179.527344 280.738281 179.152344 280.820312 178.769531 C 280.902344 178.386719 280.945312 178 280.957031 177.605469 C 280.96875 177.214844 280.945312 176.824219 280.890625 176.4375 C 280.832031 176.050781 280.738281 175.667969 280.613281 175.296875 C 280.488281 174.925781 280.332031 174.570312 280.140625 174.226562 C 279.953125 173.882812 279.734375 173.558594 279.484375 173.253906 C 279.238281 172.949219 278.964844 172.667969 278.667969 172.414062 C 278.371094 172.15625 278.054688 171.929688 277.71875 171.730469 C 277.378906 171.53125 277.027344 171.363281 276.660156 171.226562 C 276.292969 171.089844 275.914062 170.988281 275.527344 170.917969 C 275.144531 170.847656 274.753906 170.8125 274.363281 170.8125 Z M 274.363281 170.839844 " fill-opacity="1" fill-rule="nonzero"/></g><g fill="#ffffff" fill-opacity="1"><g transform="translate(45.172106, 243.898147)"><g><path d="M 8.890625 -18.359375 L 8.890625 0 L 2.15625 0 L 2.15625 -29.578125 L 8.890625 -29.578125 L 20.640625 -11.21875 L 20.71875 -11.21875 L 20.71875 -29.578125 L 27.453125 -29.578125 L 27.453125 0 L 20.71875 0 L 8.96875 -18.359375 Z M 8.890625 -18.359375 "/></g></g></g><g fill="#ffffff" fill-opacity="1"><g transform="translate(74.776132, 243.898147)"><g><path d="M 24.875 -29.578125 L 24.875 -10.5 C 24.875 -6.863281 23.894531 -4.113281 21.9375 -2.25 C 19.976562 -0.394531 17.109375 0.53125 13.328125 0.53125 C 9.554688 0.53125 6.691406 -0.394531 4.734375 -2.25 C 2.773438 -4.113281 1.796875 -6.863281 1.796875 -10.5 L 1.796875 -29.578125 L 8.53125 -29.578125 L 8.53125 -12.46875 C 8.53125 -10.082031 8.90625 -8.421875 9.65625 -7.484375 C 10.40625 -6.554688 11.628906 -6.09375 13.328125 -6.09375 C 15.023438 -6.09375 16.25 -6.554688 17 -7.484375 C 17.757812 -8.421875 18.140625 -10.082031 18.140625 -12.46875 L 18.140625 -29.578125 Z M 24.875 -29.578125 "/></g></g></g><g fill="#ffffff" fill-opacity="1"><g transform="translate(101.441262, 243.898147)"><g><path d="M 26.59375 0 L 25.203125 -17.53125 L 25.015625 -17.53125 L 18.96875 -0.171875 L 14.953125 -0.171875 L 8.890625 -17.53125 L 8.703125 -17.53125 L 7.3125 0 L 0.578125 0 L 3.21875 -29.578125 L 10.390625 -29.578125 L 16.953125 -12.515625 L 23.515625 -29.578125 L 30.6875 -29.578125 L 33.328125 0 Z M 26.59375 0 "/></g></g></g><g fill="#ffffff" fill-opacity="1"><g transform="translate(135.346116, 243.898147)"><g><path d="M 2.15625 -29.578125 L 11.328125 -29.578125 C 14.097656 -29.578125 16.304688 -28.984375 17.953125 -27.796875 C 19.609375 -26.609375 20.4375 -24.691406 20.4375 -22.046875 C 20.4375 -19.078125 19.203125 -16.960938 16.734375 -15.703125 C 20.941406 -14.960938 23.046875 -12.476562 23.046875 -8.25 C 23.046875 -5.757812 22.1875 -3.757812 20.46875 -2.25 C 18.75 -0.75 16.382812 0 13.375 0 L 2.15625 0 Z M 8.890625 -18 L 9.421875 -18 C 10.929688 -18 12.054688 -18.257812 12.796875 -18.78125 C 13.535156 -19.3125 13.90625 -20.171875 13.90625 -21.359375 C 13.90625 -23.367188 12.410156 -24.375 9.421875 -24.375 L 8.890625 -24.375 Z M 8.890625 -5.203125 L 11 -5.203125 C 14.300781 -5.203125 15.953125 -6.300781 15.953125 -8.5 C 15.953125 -9.8125 15.539062 -10.753906 14.71875 -11.328125 C 13.894531 -11.898438 12.65625 -12.1875 11 -12.1875 L 8.890625 -12.1875 Z M 8.890625 -5.203125 "/></g></g></g><g fill="#ffffff" fill-opacity="1"><g transform="translate(159.215706, 243.898147)"><g><path d="M 19.0625 -29.578125 L 19.0625 -23.65625 L 8.890625 -23.65625 L 8.890625 -17.78125 L 18.640625 -17.78125 L 18.640625 -11.859375 L 8.890625 -11.859375 L 8.890625 -5.921875 L 19.0625 -5.921875 L 19.0625 0 L 2.15625 0 L 2.15625 -29.578125 Z M 19.0625 -29.578125 "/></g></g></g><g fill="#ffffff" fill-opacity="1"><g transform="translate(180.003045, 243.898147)"><g><path d="M 2.15625 -29.578125 L 12.71875 -29.578125 C 15.5625 -29.578125 17.878906 -28.816406 19.671875 -27.296875 C 21.460938 -25.773438 22.359375 -23.609375 22.359375 -20.796875 C 22.359375 -18.617188 21.816406 -16.796875 20.734375 -15.328125 C 19.648438 -13.859375 18.175781 -12.820312 16.3125 -12.21875 L 26.484375 0 L 17.921875 0 L 8.890625 -11.6875 L 8.890625 0 L 2.15625 0 Z M 8.890625 -16.453125 L 9.671875 -16.453125 C 10.296875 -16.453125 10.820312 -16.460938 11.25 -16.484375 C 11.6875 -16.515625 12.175781 -16.597656 12.71875 -16.734375 C 13.269531 -16.878906 13.710938 -17.082031 14.046875 -17.34375 C 14.378906 -17.613281 14.664062 -18 14.90625 -18.5 C 15.144531 -19 15.265625 -19.609375 15.265625 -20.328125 C 15.265625 -21.046875 15.144531 -21.65625 14.90625 -22.15625 C 14.664062 -22.65625 14.378906 -23.035156 14.046875 -23.296875 C 13.710938 -23.554688 13.269531 -23.757812 12.71875 -23.90625 C 12.175781 -24.050781 11.6875 -24.132812 11.25 -24.15625 C 10.820312 -24.175781 10.296875 -24.1875 9.671875 -24.1875 L 8.890625 -24.1875 Z M 8.890625 -16.453125 "/></g></g></g><g fill="#ffffff" fill-opacity="1"><g transform="translate(205.664655, 243.898147)"><g/></g></g><g fill="#ffffff" fill-opacity="1"><g transform="translate(215.449042, 243.898147)"><g><path d="M 2.15625 -29.578125 L 12.9375 -29.578125 C 15.945312 -29.578125 18.382812 -28.796875 20.25 -27.234375 C 22.113281 -25.679688 23.046875 -23.421875 23.046875 -20.453125 C 23.046875 -17.492188 22.101562 -15.171875 20.21875 -13.484375 C 18.332031 -11.804688 15.90625 -10.96875 12.9375 -10.96875 L 8.890625 -10.96875 L 8.890625 0 L 2.15625 0 Z M 8.890625 -16.34375 L 10.78125 -16.34375 C 12.289062 -16.34375 13.53125 -16.644531 14.5 -17.25 C 15.46875 -17.863281 15.953125 -18.863281 15.953125 -20.25 C 15.953125 -21.65625 15.46875 -22.660156 14.5 -23.265625 C 13.53125 -23.878906 12.289062 -24.1875 10.78125 -24.1875 L 8.890625 -24.1875 Z M 8.890625 -16.34375 "/></g></g></g><g fill="#ffffff" fill-opacity="1"><g transform="translate(239.318631, 243.898147)"><g><path d="M 8.890625 -29.578125 L 8.890625 -5.921875 L 19.0625 -5.921875 L 19.0625 0 L 2.15625 0 L 2.15625 -29.578125 Z M 8.890625 -29.578125 "/></g></g></g><g fill="#ffffff" fill-opacity="1"><g transform="translate(259.568371, 243.898147)"><g><path d="M 17.171875 -29.578125 L 29.109375 0 L 21.859375 0 L 19.671875 -5.921875 L 8.421875 -5.921875 L 6.234375 0 L -1 0 L 10.9375 -29.578125 Z M 17.390625 -11.828125 L 14.09375 -20.4375 L 14.015625 -20.4375 L 10.71875 -11.828125 Z M 17.390625 -11.828125 "/></g></g></g><g fill="#ffffff" fill-opacity="1"><g transform="translate(287.667111, 243.898147)"><g><path d="M 0.28125 -23.65625 L 0.28125 -29.578125 L 21.078125 -29.578125 L 21.078125 -23.65625 L 14.046875 -23.65625 L 14.046875 0 L 7.3125 0 L 7.3125 -23.65625 Z M 0.28125 -23.65625 "/></g></g></g><g fill="#ffffff" fill-opacity="1"><g transform="translate(309.027905, 243.898147)"><g><path d="M 19.0625 -29.578125 L 19.0625 -23.65625 L 8.890625 -23.65625 L 8.890625 -17.78125 L 18.640625 -17.78125 L 18.640625 -11.859375 L 8.890625 -11.859375 L 8.890625 -5.921875 L 19.0625 -5.921875 L 19.0625 0 L 2.15625 0 L 2.15625 -29.578125 Z M 19.0625 -29.578125 "/></g></g></g><g fill="#c8c8c8" fill-opacity="1"><g transform="translate(126.023434, 273.486721)"><g><path d="M 1.265625 -17.328125 L 6.28125 -17.328125 C 8.6875 -17.328125 10.742188 -16.503906 12.453125 -14.859375 C 14.160156 -13.210938 15.015625 -11.148438 15.015625 -8.671875 C 15.015625 -6.179688 14.160156 -4.113281 12.453125 -2.46875 C 10.753906 -0.820312 8.695312 0 6.28125 0 L 1.265625 0 Z M 5.203125 -3.53125 L 5.8125 -3.53125 C 7.257812 -3.53125 8.441406 -4.015625 9.359375 -4.984375 C 10.273438 -5.960938 10.738281 -7.1875 10.75 -8.65625 C 10.75 -10.125 10.289062 -11.347656 9.375 -12.328125 C 8.457031 -13.304688 7.269531 -13.796875 5.8125 -13.796875 L 5.203125 -13.796875 Z M 5.203125 -3.53125 "/></g></g></g><g fill="#c8c8c8" fill-opacity="1"><g transform="translate(141.521502, 273.486721)"><g><path d="M 11.171875 -17.328125 L 11.171875 -13.859375 L 5.203125 -13.859375 L 5.203125 -10.421875 L 10.921875 -10.421875 L 10.921875 -6.953125 L 5.203125 -6.953125 L 5.203125 -3.46875 L 11.171875 -3.46875 L 11.171875 0 L 1.265625 0 L 1.265625 -17.328125 Z M 11.171875 -17.328125 "/></g></g></g><g fill="#c8c8c8" fill-opacity="1"><g transform="translate(153.701552, 273.486721)"><g><path d="M 0.171875 -13.859375 L 0.171875 -17.328125 L 12.34375 -17.328125 L 12.34375 -13.859375 L 8.234375 -13.859375 L 8.234375 0 L 4.28125 0 L 4.28125 -13.859375 Z M 0.171875 -13.859375 "/></g></g></g><g fill="#c8c8c8" fill-opacity="1"><g transform="translate(166.217599, 273.486721)"><g><path d="M 11.171875 -17.328125 L 11.171875 -13.859375 L 5.203125 -13.859375 L 5.203125 -10.421875 L 10.921875 -10.421875 L 10.921875 -6.953125 L 5.203125 -6.953125 L 5.203125 -3.46875 L 11.171875 -3.46875 L 11.171875 0 L 1.265625 0 L 1.265625 -17.328125 Z M 11.171875 -17.328125 "/></g></g></g><g fill="#c8c8c8" fill-opacity="1"><g transform="translate(178.397648, 273.486721)"><g><path d="M 10.484375 -3.5625 C 11.078125 -3.5625 11.65625 -3.648438 12.21875 -3.828125 C 12.789062 -4.015625 13.210938 -4.195312 13.484375 -4.375 L 13.875 -4.640625 L 15.5625 -1.28125 C 15.507812 -1.238281 15.429688 -1.179688 15.328125 -1.109375 C 15.234375 -1.046875 15.003906 -0.914062 14.640625 -0.71875 C 14.285156 -0.53125 13.90625 -0.363281 13.5 -0.21875 C 13.09375 -0.0820312 12.5625 0.0351562 11.90625 0.140625 C 11.25 0.253906 10.570312 0.3125 9.875 0.3125 C 8.257812 0.3125 6.726562 -0.0820312 5.28125 -0.875 C 3.84375 -1.664062 2.679688 -2.753906 1.796875 -4.140625 C 0.921875 -5.523438 0.484375 -7.019531 0.484375 -8.625 C 0.484375 -9.84375 0.738281 -11.007812 1.25 -12.125 C 1.769531 -13.25 2.460938 -14.210938 3.328125 -15.015625 C 4.191406 -15.816406 5.195312 -16.453125 6.34375 -16.921875 C 7.488281 -17.398438 8.664062 -17.640625 9.875 -17.640625 C 10.988281 -17.640625 12.019531 -17.503906 12.96875 -17.234375 C 13.914062 -16.972656 14.582031 -16.707031 14.96875 -16.4375 L 15.5625 -16.046875 L 13.875 -12.6875 C 13.78125 -12.769531 13.632812 -12.867188 13.4375 -12.984375 C 13.238281 -13.109375 12.84375 -13.265625 12.25 -13.453125 C 11.664062 -13.648438 11.078125 -13.75 10.484375 -13.75 C 9.523438 -13.75 8.664062 -13.59375 7.90625 -13.28125 C 7.15625 -12.976562 6.554688 -12.570312 6.109375 -12.0625 C 5.671875 -11.5625 5.335938 -11.019531 5.109375 -10.4375 C 4.878906 -9.863281 4.765625 -9.273438 4.765625 -8.671875 C 4.765625 -7.359375 5.257812 -6.175781 6.25 -5.125 C 7.238281 -4.082031 8.648438 -3.5625 10.484375 -3.5625 Z M 10.484375 -3.5625 "/></g></g></g><g fill="#c8c8c8" fill-opacity="1"><g transform="translate(194.210715, 273.486721)"><g><path d="M 0.171875 -13.859375 L 0.171875 -17.328125 L 12.34375 -17.328125 L 12.34375 -13.859375 L 8.234375 -13.859375 L 8.234375 0 L 4.28125 0 L 4.28125 -13.859375 Z M 0.171875 -13.859375 "/></g></g></g><g fill="#c8c8c8" fill-opacity="1"><g transform="translate(206.726763, 273.486721)"><g><path d="M 5.203125 -17.328125 L 5.203125 0 L 1.265625 0 L 1.265625 -17.328125 Z M 5.203125 -17.328125 "/></g></g></g><g fill="#c8c8c8" fill-opacity="1"><g transform="translate(213.194792, 273.486721)"><g><path d="M 0.484375 -8.671875 C 0.484375 -11.179688 1.335938 -13.300781 3.046875 -15.03125 C 4.753906 -16.769531 6.8125 -17.640625 9.21875 -17.640625 C 11.644531 -17.640625 13.703125 -16.773438 15.390625 -15.046875 C 17.085938 -13.316406 17.9375 -11.191406 17.9375 -8.671875 C 17.9375 -6.140625 17.101562 -4.007812 15.4375 -2.28125 C 13.769531 -0.550781 11.695312 0.3125 9.21875 0.3125 C 6.6875 0.3125 4.597656 -0.539062 2.953125 -2.25 C 1.304688 -3.96875 0.484375 -6.109375 0.484375 -8.671875 Z M 4.75 -8.671875 C 4.75 -7.765625 4.890625 -6.9375 5.171875 -6.1875 C 5.453125 -5.4375 5.941406 -4.800781 6.640625 -4.28125 C 7.335938 -3.757812 8.195312 -3.5 9.21875 -3.5 C 10.6875 -3.5 11.796875 -4.003906 12.546875 -5.015625 C 13.296875 -6.023438 13.671875 -7.242188 13.671875 -8.671875 C 13.671875 -10.085938 13.285156 -11.300781 12.515625 -12.3125 C 11.753906 -13.332031 10.65625 -13.84375 9.21875 -13.84375 C 7.789062 -13.84375 6.6875 -13.332031 5.90625 -12.3125 C 5.132812 -11.300781 4.75 -10.085938 4.75 -8.671875 Z M 4.75 -8.671875 "/></g></g></g><g fill="#c8c8c8" fill-opacity="1"><g transform="translate(231.611871, 273.486721)"><g><path d="M 5.203125 -10.75 L 5.203125 0 L 1.265625 0 L 1.265625 -17.328125 L 5.203125 -17.328125 L 12.09375 -6.578125 L 12.140625 -6.578125 L 12.140625 -17.328125 L 16.078125 -17.328125 L 16.078125 0 L 12.140625 0 L 5.25 -10.75 Z M 5.203125 -10.75 "/></g></g></g></svg>