<svg xmlns="http://www.w3.org/2000/svg" xmlns:xlink="http://www.w3.org/1999/xlink" width="500" zoomAndPan="magnify" viewBox="0 0 375 374.999991" height="500" preserveAspectRatio="xMidYMid meet" version="1.0"><defs><g/><clipPath id="b1bee649d5"><path d="M 47 142.28125 L 130 142.28125 L 130 233 L 47 233 Z M 47 142.28125 " clip-rule="nonzero"/></clipPath><clipPath id="97055357e7"><path d="M 54.988281 148.238281 L 122.105469 148.238281 L 122.105469 215.355469 L 54.988281 215.355469 Z M 54.988281 148.238281 " clip-rule="nonzero"/></clipPath><clipPath id="4243803c95"><path d="M 88.546875 148.238281 C 70.011719 148.238281 54.988281 163.261719 54.988281 181.796875 C 54.988281 200.332031 70.011719 215.355469 88.546875 215.355469 C 107.082031 215.355469 122.105469 200.332031 122.105469 181.796875 C 122.105469 163.261719 107.082031 148.238281 88.546875 148.238281 Z M 88.546875 148.238281 " clip-rule="nonzero"/></clipPath></defs><g clip-path="url(#b1bee649d5)"><path fill="#7159e3" d="M 127.136719 167.546875 C 124.558594 160.621094 119.3125 154.257812 112.359375 149.632812 C 105.261719 144.90625 96.792969 142.300781 88.515625 142.296875 C 88.515625 142.296875 88.515625 142.296875 88.511719 142.296875 C 88.484375 142.296875 88.453125 142.300781 88.425781 142.300781 C 88.414062 142.300781 88.398438 142.300781 88.386719 142.300781 C 83.839844 142.300781 79.628906 142.925781 75.871094 144.152344 C 70.027344 146.0625 64.523438 149.238281 59.957031 153.335938 C 55.335938 157.484375 51.882812 162.398438 49.964844 167.546875 C 48.957031 170.265625 45.886719 179.996094 48.804688 191.125 C 50.871094 199.011719 55.164062 204.410156 61.882812 211.074219 C 64.316406 213.488281 67.085938 215.757812 70.019531 218.164062 C 71.824219 219.640625 73.6875 221.167969 75.667969 222.878906 C 79.535156 226.222656 83.582031 229.433594 87.695312 232.421875 C 87.699219 232.425781 87.699219 232.425781 87.703125 232.425781 C 87.746094 232.460938 87.796875 232.488281 87.847656 232.515625 C 87.863281 232.523438 87.878906 232.535156 87.898438 232.546875 C 87.925781 232.558594 87.957031 232.570312 87.984375 232.582031 C 88.082031 232.621094 88.179688 232.652344 88.28125 232.671875 C 88.292969 232.675781 88.308594 232.679688 88.324219 232.683594 C 88.378906 232.691406 88.429688 232.691406 88.484375 232.695312 C 88.507812 232.695312 88.527344 232.699219 88.546875 232.699219 C 88.550781 232.699219 88.554688 232.699219 88.558594 232.699219 C 88.621094 232.699219 88.6875 232.691406 88.75 232.683594 C 88.769531 232.679688 88.789062 232.675781 88.8125 232.671875 C 88.867188 232.664062 88.921875 232.648438 88.976562 232.632812 C 88.984375 232.628906 88.996094 232.628906 89.007812 232.625 C 89.015625 232.621094 89.027344 232.617188 89.035156 232.613281 C 89.09375 232.59375 89.152344 232.566406 89.210938 232.539062 C 89.234375 232.527344 89.253906 232.511719 89.277344 232.5 C 89.308594 232.480469 89.339844 232.464844 89.367188 232.445312 C 89.378906 232.4375 89.394531 232.429688 89.40625 232.421875 C 93.519531 229.429688 97.566406 226.21875 101.433594 222.875 C 102.949219 221.566406 104.40625 220.320312 105.8125 219.121094 C 117.566406 209.074219 125.332031 202.433594 128.296875 191.125 C 131.214844 179.992188 128.144531 170.261719 127.136719 167.546875 Z M 88.550781 196.84375 C 80.175781 196.84375 73.359375 190.03125 73.359375 181.65625 C 73.359375 173.28125 80.175781 166.464844 88.550781 166.464844 C 96.925781 166.464844 103.738281 173.28125 103.738281 181.65625 C 103.738281 190.03125 96.925781 196.84375 88.550781 196.84375 Z M 88.550781 196.84375 " fill-opacity="1" fill-rule="nonzero"/></g><g clip-path="url(#97055357e7)"><g clip-path="url(#4243803c95)"><path fill="#7159e3" d="M 54.988281 148.238281 L 122.105469 148.238281 L 122.105469 215.355469 L 54.988281 215.355469 Z M 54.988281 148.238281 " fill-opacity="1" fill-rule="nonzero"/></g></g><g fill="#f5f3ff" fill-opacity="1"><g transform="translate(142.952294, 182.260812)"><g><path d="M 27.042969 -19.9375 C 27.042969 -23.363281 25.542969 -26.417969 23.214844 -28.59375 C 20.886719 -30.769531 17.660156 -32.097656 14.234375 -32.097656 L 5.101562 -32.097656 C 4.277344 -32.097656 3.753906 -31.972656 3.453125 -31.769531 C 3.152344 -31.570312 3.050781 -31.269531 3.050781 -30.894531 C 3.050781 -30.59375 3.101562 -30.292969 3.175781 -29.96875 C 3.253906 -29.644531 3.300781 -29.292969 3.328125 -28.96875 L 3.328125 -2.703125 C 3.328125 -1.875 3.652344 -1.125 4.175781 -0.601562 C 4.679688 -0.0742188 5.429688 0.25 6.253906 0.25 C 7.078125 0.25 7.832031 -0.0742188 8.355469 -0.601562 C 8.878906 -1.125 9.207031 -1.875 9.207031 -2.703125 L 9.207031 -8.179688 L 14.234375 -8.179688 C 17.660156 -8.179688 20.886719 -9.40625 23.214844 -11.507812 C 25.542969 -13.582031 27.042969 -16.511719 27.042969 -19.9375 Z M 21.265625 -19.789062 C 21.265625 -17.8125 20.488281 -16.210938 19.210938 -15.085938 C 17.910156 -13.960938 16.160156 -13.308594 14.234375 -13.308594 L 9.105469 -13.308594 L 9.105469 -26.765625 L 14.234375 -26.765625 C 16.160156 -26.765625 17.910156 -25.992188 19.210938 -24.714844 C 20.488281 -23.441406 21.265625 -21.714844 21.265625 -19.789062 Z M 21.265625 -19.789062 "/></g></g></g><g fill="#f5f3ff" fill-opacity="1"><g transform="translate(170.041989, 182.260812)"><g><path d="M 24.714844 -24.414062 C 23.492188 -24.414062 22.515625 -23.617188 22.113281 -21.515625 L 21.890625 -20.839844 C 20.011719 -23.039062 17.335938 -24.414062 13.960938 -24.414062 C 10.558594 -24.414062 7.503906 -23.015625 5.253906 -20.789062 C 3 -18.5625 1.601562 -15.484375 1.601562 -12.082031 C 1.601562 -8.679688 3 -5.578125 5.253906 -3.351562 C 7.503906 -1.125 10.558594 0.273438 13.960938 0.273438 C 17.234375 0.273438 19.886719 -1.027344 21.738281 -3.128906 L 22.113281 -1.675781 C 22.488281 -0.5 23.265625 0.273438 24.492188 0.273438 C 25.667969 0.273438 26.316406 -0.398438 26.316406 -1.625 L 26.316406 -22.816406 C 26.316406 -23.890625 25.792969 -24.414062 24.714844 -24.414062 Z M 18.511719 -7.378906 C 17.359375 -6.179688 15.761719 -5.429688 13.960938 -5.429688 C 12.15625 -5.429688 10.558594 -6.179688 9.40625 -7.378906 C 8.253906 -8.582031 7.554688 -10.257812 7.554688 -12.082031 C 7.554688 -13.882812 8.253906 -15.558594 9.40625 -16.761719 C 10.558594 -17.960938 12.15625 -18.710938 13.960938 -18.710938 C 15.761719 -18.710938 17.359375 -17.960938 18.511719 -16.761719 C 19.664062 -15.558594 20.363281 -13.882812 20.363281 -12.082031 C 20.363281 -10.257812 19.664062 -8.582031 18.511719 -7.378906 Z M 18.511719 -7.378906 "/></g></g></g><g fill="#f5f3ff" fill-opacity="1"><g transform="translate(198.507434, 182.260812)"><g><path d="M 17.886719 -23.816406 C 16.5625 -24.289062 14.960938 -24.390625 13.785156 -24.289062 C 12.15625 -24.015625 10.707031 -23.363281 9.507812 -22.566406 C 8.582031 -21.9375 7.804688 -21.238281 7.230469 -20.589844 L 7.003906 -21.539062 C 6.578125 -23.714844 5.628906 -24.441406 4.402344 -24.441406 C 3.328125 -24.441406 2.800781 -23.914062 2.800781 -22.839844 L 2.800781 -2.703125 C 2.800781 -1.875 3.128906 -1.125 3.652344 -0.601562 C 4.175781 -0.0742188 4.929688 0.25 5.753906 0.25 C 6.554688 0.25 7.304688 -0.0742188 7.832031 -0.601562 C 8.355469 -1.125 8.707031 -1.875 8.707031 -2.703125 L 8.707031 -12.734375 C 8.78125 -13.410156 8.929688 -14.058594 9.15625 -14.683594 C 9.632812 -15.910156 10.355469 -16.910156 11.308594 -17.613281 C 12.257812 -18.3125 13.410156 -18.710938 14.558594 -18.636719 C 15.136719 -18.585938 15.683594 -18.5625 16.234375 -18.535156 C 17.613281 -18.460938 18.238281 -18.511719 18.960938 -18.9375 C 19.664062 -19.335938 20.214844 -20.136719 20.214844 -21.0625 C 20.214844 -22.464844 19.1875 -23.339844 17.886719 -23.816406 Z M 17.886719 -23.816406 "/></g></g></g><g fill="#f5f3ff" fill-opacity="1"><g transform="translate(218.893446, 182.260812)"><g><path d="M 25.941406 -4.503906 L 19.460938 -14.882812 L 24.492188 -18.761719 C 24.714844 -18.9375 24.941406 -19.113281 25.167969 -19.335938 C 25.617188 -19.761719 26.015625 -20.261719 26.265625 -20.789062 C 26.515625 -21.289062 26.542969 -21.964844 26.316406 -22.691406 C 26.042969 -23.566406 25.292969 -24.242188 24.492188 -24.464844 C 23.914062 -24.640625 23.363281 -24.566406 22.863281 -24.390625 C 21.839844 -23.890625 20.8125 -23.214844 19.914062 -22.539062 L 8.707031 -13.859375 L 8.707031 -29.144531 C 8.707031 -29.945312 8.355469 -30.695312 7.832031 -31.21875 C 7.304688 -31.746094 6.554688 -32.070312 5.753906 -32.070312 C 4.929688 -32.070312 4.175781 -31.746094 3.652344 -31.21875 C 3.128906 -30.695312 2.800781 -29.945312 2.800781 -29.144531 L 2.800781 -2.703125 C 2.800781 -1.875 3.128906 -1.125 3.652344 -0.601562 C 4.175781 -0.0742188 4.929688 0.25 5.753906 0.25 C 6.554688 0.25 7.304688 -0.0742188 7.832031 -0.601562 C 8.355469 -1.125 8.707031 -1.875 8.707031 -2.703125 L 8.707031 -6.703125 C 9.15625 -7.054688 9.605469 -7.40625 10.054688 -7.78125 C 10.957031 -8.480469 11.957031 -9.230469 13.082031 -10.105469 C 13.660156 -10.53125 14.257812 -11.007812 14.910156 -11.53125 L 21.414062 -1.101562 C 21.714844 -0.726562 22.113281 -0.375 22.566406 -0.125 C 23.015625 0.125 23.539062 0.25 24.066406 0.125 C 25.191406 0.0234375 26.042969 -0.699219 26.417969 -1.625 C 26.792969 -2.527344 26.667969 -3.628906 25.941406 -4.503906 Z M 25.941406 -4.503906 "/></g></g></g><g fill="#f5f3ff" fill-opacity="1"><g transform="translate(245.682971, 182.260812)"><g><path d="M 2.5 -30.769531 C 2.5 -29.871094 2.851562 -29.070312 3.453125 -28.492188 C 4.027344 -27.917969 4.851562 -27.59375 5.753906 -27.59375 C 6.65625 -27.59375 7.453125 -27.917969 8.054688 -28.492188 C 8.65625 -29.070312 9.003906 -29.871094 9.003906 -30.769531 C 9.003906 -31.671875 8.65625 -32.472656 8.054688 -33.046875 C 7.453125 -33.621094 6.65625 -33.972656 5.753906 -33.972656 C 4.851562 -33.972656 4.027344 -33.621094 3.453125 -33.046875 C 2.851562 -32.472656 2.5 -31.671875 2.5 -30.769531 Z M 2.800781 -2.703125 C 2.800781 -1.875 3.128906 -1.125 3.652344 -0.601562 C 4.152344 -0.0742188 4.902344 0.25 5.730469 0.25 C 6.527344 0.25 7.28125 -0.0742188 7.804688 -0.601562 C 8.332031 -1.125 8.679688 -1.875 8.679688 -2.703125 L 8.679688 -21.539062 C 8.679688 -22.339844 8.332031 -23.089844 7.804688 -23.617188 C 7.28125 -24.140625 6.527344 -24.464844 5.730469 -24.464844 C 4.902344 -24.464844 4.152344 -24.140625 3.652344 -23.617188 C 3.128906 -23.089844 2.800781 -22.339844 2.800781 -21.539062 Z M 2.800781 -2.703125 "/></g></g></g><g fill="#f5f3ff" fill-opacity="1"><g transform="translate(256.263594, 182.260812)"><g><path d="M 24.441406 -20.8125 C 22.441406 -23.015625 19.613281 -24.414062 16.210938 -24.414062 C 14.433594 -24.414062 12.609375 -23.914062 10.933594 -23.113281 C 9.554688 -22.441406 8.28125 -21.539062 7.253906 -20.488281 L 7.003906 -21.539062 C 6.578125 -23.714844 5.628906 -24.441406 4.402344 -24.441406 C 3.328125 -24.441406 2.800781 -23.914062 2.800781 -22.839844 L 2.800781 -2.703125 C 2.800781 -1.875 3.128906 -1.125 3.652344 -0.601562 C 4.175781 -0.0742188 4.929688 0.25 5.753906 0.25 C 6.554688 0.25 7.304688 -0.0742188 7.832031 -0.601562 C 8.355469 -1.125 8.707031 -1.875 8.707031 -2.703125 L 8.707031 -12.03125 C 8.707031 -13.808594 9.507812 -15.484375 10.757812 -16.710938 C 12.007812 -17.910156 13.683594 -18.710938 15.460938 -18.710938 C 17.261719 -18.710938 18.789062 -17.960938 19.886719 -16.761719 C 20.988281 -15.558594 21.640625 -13.882812 21.640625 -12.082031 L 21.640625 -2.703125 C 21.640625 -1.902344 21.988281 -1.152344 22.515625 -0.625 C 23.039062 -0.101562 23.789062 0.25 24.617188 0.25 C 25.441406 0.25 26.191406 -0.125 26.71875 -0.675781 C 27.242188 -1.226562 27.542969 -1.925781 27.542969 -2.703125 L 27.542969 -12.109375 C 27.542969 -15.511719 26.417969 -18.585938 24.441406 -20.8125 Z M 24.441406 -20.8125 "/></g></g></g><g fill="#f5f3ff" fill-opacity="1"><g transform="translate(285.704582, 182.260812)"><g><path d="M 14.933594 4.554688 C 14.160156 4.578125 13.484375 4.503906 12.910156 4.378906 C 12.332031 4.253906 11.757812 4.128906 11.132812 4.050781 C 10.433594 4.027344 9.757812 4.203125 9.28125 4.601562 C 8.78125 5.003906 8.457031 5.628906 8.457031 6.355469 C 8.457031 7.554688 9.230469 8.429688 10.457031 9.003906 C 11.683594 9.605469 13.332031 9.855469 15.109375 9.855469 C 17.988281 9.855469 20.761719 8.855469 22.839844 6.855469 C 24.917969 4.851562 26.265625 1.851562 26.265625 -2.125 L 26.265625 -21.214844 C 26.265625 -21.914062 26.191406 -22.714844 25.941406 -23.339844 C 25.691406 -23.941406 25.242188 -24.390625 24.566406 -24.390625 C 23.191406 -24.390625 22.339844 -22.863281 22.113281 -20.039062 C 21.339844 -21.039062 20.113281 -22.164062 18.5625 -22.988281 C 17.011719 -23.816406 15.136719 -24.414062 13.132812 -24.414062 C 9.730469 -24.414062 6.855469 -23.015625 4.804688 -20.789062 C 2.75 -18.5625 1.550781 -15.484375 1.550781 -12.082031 C 1.550781 -8.679688 2.75 -5.578125 4.804688 -3.351562 C 6.855469 -1.125 9.730469 0.273438 13.132812 0.273438 C 14.859375 0.273438 16.5625 -0.199219 17.910156 -0.976562 C 19.261719 -1.75 20.261719 -2.726562 20.6875 -3.800781 C 21.011719 1.675781 19.210938 4.429688 14.933594 4.554688 Z M 7.53125 -12.082031 C 7.53125 -13.882812 8.128906 -15.558594 9.230469 -16.761719 C 10.308594 -17.960938 11.832031 -18.710938 13.632812 -18.710938 C 15.410156 -18.710938 17.085938 -17.9375 18.3125 -16.734375 C 19.511719 -15.511719 20.3125 -13.859375 20.3125 -12.082031 C 20.3125 -10.257812 19.539062 -8.582031 18.335938 -7.378906 C 17.109375 -6.179688 15.433594 -5.429688 13.632812 -5.429688 C 11.832031 -5.429688 10.308594 -6.179688 9.230469 -7.378906 C 8.128906 -8.582031 7.53125 -10.257812 7.53125 -12.082031 Z M 7.53125 -12.082031 "/></g></g></g><g fill="#f5f3ff" fill-opacity="1"><g transform="translate(142.952294, 225.010809)"><g><path d="M 19.964844 -23.039062 C 20.738281 -23.039062 21.4375 -23.191406 21.9375 -23.589844 C 22.441406 -23.964844 22.765625 -24.539062 22.765625 -25.515625 C 22.765625 -26.542969 22.164062 -27.617188 21.164062 -28.570312 C 20.164062 -29.519531 18.835938 -30.320312 17.335938 -30.921875 C 15.835938 -31.519531 14.234375 -31.871094 12.734375 -31.871094 C 9.707031 -31.871094 7.078125 -30.96875 5.203125 -29.445312 C 3.300781 -27.917969 2.203125 -25.714844 2.203125 -23.113281 C 2.203125 -21.9375 2.425781 -20.914062 2.875 -20.039062 C 3.753906 -18.238281 5.203125 -16.886719 7.03125 -15.835938 C 8.855469 -14.785156 10.832031 -13.910156 12.660156 -13.132812 C 13.582031 -12.757812 14.382812 -12.359375 15.109375 -11.933594 C 16.511719 -11.105469 17.488281 -10.179688 17.488281 -8.957031 C 17.488281 -7.753906 16.761719 -6.828125 15.761719 -6.230469 C 14.734375 -5.605469 13.410156 -5.277344 12.183594 -5.277344 C 10.90625 -5.277344 9.707031 -5.628906 8.707031 -6.152344 C 7.679688 -6.679688 6.855469 -7.378906 6.378906 -8.15625 C 5.480469 -8.957031 4.652344 -9.429688 3.777344 -9.429688 C 2.875 -9.429688 2.203125 -9.054688 1.800781 -8.480469 C 1.375 -7.90625 1.199219 -7.15625 1.300781 -6.355469 C 1.625 -4.828125 2.652344 -3.175781 4.453125 -1.902344 C 6.230469 -0.601562 8.78125 0.273438 12.15625 0.273438 C 14.960938 0.273438 17.835938 -0.574219 20.039062 -2.175781 C 22.238281 -3.753906 23.742188 -6.078125 23.742188 -9.054688 C 23.742188 -10.207031 23.515625 -11.230469 23.066406 -12.109375 C 22.164062 -13.882812 20.613281 -15.234375 18.710938 -16.335938 C 16.8125 -17.410156 14.808594 -18.3125 12.910156 -19.136719 C 11.957031 -19.5625 11.105469 -19.988281 10.355469 -20.414062 C 8.855469 -21.265625 7.878906 -22.214844 7.878906 -23.441406 C 7.878906 -24.464844 8.503906 -25.339844 9.355469 -25.890625 C 10.207031 -26.441406 11.332031 -26.742188 12.332031 -26.742188 C 14.308594 -26.742188 15.660156 -25.839844 17.335938 -24.140625 C 17.835938 -23.664062 18.261719 -23.390625 18.6875 -23.214844 C 19.085938 -23.039062 19.488281 -23.015625 19.964844 -23.039062 Z M 19.964844 -23.039062 "/></g></g></g><g fill="#f5f3ff" fill-opacity="1"><g transform="translate(167.215435, 225.010809)"><g><path d="M 24.140625 -20.8125 C 22.039062 -23.039062 19.085938 -24.441406 15.683594 -24.441406 C 12.28125 -24.441406 9.480469 -23.039062 7.503906 -20.8125 L 7.304688 -20.589844 L 7.003906 -21.539062 C 6.605469 -23.617188 5.628906 -24.441406 4.402344 -24.441406 C 3.328125 -24.441406 2.800781 -23.914062 2.800781 -22.839844 L 2.800781 5.152344 C 2.800781 6.855469 4.050781 8.105469 5.753906 8.105469 C 6.554688 8.105469 7.304688 7.78125 7.832031 7.253906 C 8.355469 6.730469 8.707031 5.980469 8.707031 5.152344 L 8.707031 -2.5 C 10.65625 -0.800781 13.109375 0.25 15.683594 0.25 C 19.085938 0.25 22.039062 -1.152344 24.140625 -3.378906 C 26.242188 -5.605469 27.519531 -8.707031 27.519531 -12.109375 C 27.519531 -15.511719 26.242188 -18.585938 24.140625 -20.8125 Z M 19.710938 -7.40625 C 18.5625 -6.203125 16.960938 -5.453125 15.160156 -5.453125 C 13.359375 -5.453125 11.757812 -6.203125 10.605469 -7.40625 C 9.457031 -8.605469 8.753906 -10.28125 8.753906 -12.109375 C 8.753906 -13.910156 9.457031 -15.585938 10.605469 -16.785156 C 11.757812 -17.988281 13.359375 -18.738281 15.160156 -18.738281 C 16.960938 -18.738281 18.5625 -17.988281 19.710938 -16.785156 C 20.863281 -15.585938 21.5625 -13.910156 21.5625 -12.109375 C 21.5625 -10.28125 20.863281 -8.605469 19.710938 -7.40625 Z M 19.710938 -7.40625 "/></g></g></g><g fill="#f5f3ff" fill-opacity="1"><g transform="translate(195.355709, 225.010809)"><g><path d="M 24.714844 -24.414062 C 23.492188 -24.414062 22.515625 -23.617188 22.113281 -21.515625 L 21.890625 -20.839844 C 20.011719 -23.039062 17.335938 -24.414062 13.960938 -24.414062 C 10.558594 -24.414062 7.503906 -23.015625 5.253906 -20.789062 C 3 -18.5625 1.601562 -15.484375 1.601562 -12.082031 C 1.601562 -8.679688 3 -5.578125 5.253906 -3.351562 C 7.503906 -1.125 10.558594 0.273438 13.960938 0.273438 C 17.234375 0.273438 19.886719 -1.027344 21.738281 -3.128906 L 22.113281 -1.675781 C 22.488281 -0.5 23.265625 0.273438 24.492188 0.273438 C 25.667969 0.273438 26.316406 -0.398438 26.316406 -1.625 L 26.316406 -22.816406 C 26.316406 -23.890625 25.792969 -24.414062 24.714844 -24.414062 Z M 18.511719 -7.378906 C 17.359375 -6.179688 15.761719 -5.429688 13.960938 -5.429688 C 12.15625 -5.429688 10.558594 -6.179688 9.40625 -7.378906 C 8.253906 -8.582031 7.554688 -10.257812 7.554688 -12.082031 C 7.554688 -13.882812 8.253906 -15.558594 9.40625 -16.761719 C 10.558594 -17.960938 12.15625 -18.710938 13.960938 -18.710938 C 15.761719 -18.710938 17.359375 -17.960938 18.511719 -16.761719 C 19.664062 -15.558594 20.363281 -13.882812 20.363281 -12.082031 C 20.363281 -10.257812 19.664062 -8.582031 18.511719 -7.378906 Z M 18.511719 -7.378906 "/></g></g></g><g fill="#f5f3ff" fill-opacity="1"><g transform="translate(223.821152, 225.010809)"><g><path d="M 22.664062 -21.011719 C 21.6875 -22.113281 20.339844 -22.941406 18.789062 -23.539062 C 17.234375 -24.117188 15.535156 -24.414062 13.859375 -24.414062 C 10.457031 -24.414062 7.378906 -23.015625 5.152344 -20.789062 C 2.925781 -18.5625 1.527344 -15.484375 1.527344 -12.082031 C 1.527344 -8.679688 2.925781 -5.578125 5.152344 -3.351562 C 7.378906 -1.125 10.457031 0.273438 13.859375 0.273438 C 16.535156 0.273438 18.988281 -0.476562 20.789062 -1.527344 C 22.566406 -2.578125 23.664062 -3.976562 23.664062 -5.304688 C 23.664062 -6.480469 23.039062 -7.40625 22.113281 -7.78125 C 21.238281 -8.15625 20.238281 -8.003906 19.460938 -7.605469 C 18.285156 -6.527344 16.710938 -5.902344 15.109375 -5.730469 C 13.035156 -5.453125 11.15625 -6.003906 9.757812 -7.128906 C 8.355469 -8.230469 7.480469 -9.957031 7.480469 -12.082031 C 7.480469 -14.285156 8.429688 -15.984375 9.855469 -17.085938 C 11.28125 -18.1875 13.207031 -18.664062 15.109375 -18.4375 C 17.109375 -18.0625 18.789062 -17.136719 20.488281 -16.3125 C 21.3125 -16.136719 22.113281 -16.386719 22.691406 -16.886719 C 23.265625 -17.359375 23.617188 -18.113281 23.617188 -18.914062 C 23.617188 -19.636719 23.289062 -20.339844 22.664062 -21.011719 Z M 22.664062 -21.011719 "/></g></g></g><g fill="#f5f3ff" fill-opacity="1"><g transform="translate(248.134318, 225.010809)"><g><path d="M 13.882812 0.25 C 15.808594 0.25 18.011719 -0.199219 19.6875 -0.949219 C 21.363281 -1.699219 22.539062 -2.777344 22.539062 -4.078125 C 22.539062 -5.203125 21.8125 -5.980469 20.914062 -6.304688 C 20.011719 -6.628906 18.960938 -6.605469 18.261719 -6.203125 C 17.0625 -5.179688 15.511719 -4.601562 13.910156 -4.601562 C 12.234375 -4.601562 10.730469 -5.304688 9.605469 -6.355469 C 8.480469 -7.40625 7.703125 -8.832031 7.578125 -10.355469 L 23.390625 -10.355469 C 25.492188 -10.355469 26.265625 -10.78125 26.265625 -12.457031 C 26.265625 -15.886719 24.917969 -18.914062 22.714844 -21.039062 C 20.511719 -23.164062 17.488281 -24.441406 14.085938 -24.441406 C 10.683594 -24.441406 7.554688 -23.140625 5.253906 -20.964844 C 2.953125 -18.761719 1.527344 -15.683594 1.527344 -12.082031 C 1.527344 -8.679688 2.925781 -5.578125 5.179688 -3.378906 C 7.429688 -1.152344 10.480469 0.25 13.882812 0.25 Z M 14.085938 -19.636719 C 15.683594 -19.636719 17.1875 -19.039062 18.3125 -18.035156 C 19.414062 -17.035156 20.1875 -15.660156 20.3125 -14.058594 L 7.53125 -14.058594 C 7.730469 -15.660156 8.554688 -17.035156 9.730469 -18.035156 C 10.90625 -19.039062 12.457031 -19.636719 14.085938 -19.636719 Z M 14.085938 -19.636719 "/></g></g></g><g fill="#f5f3ff" fill-opacity="1"><g transform="translate(71.084194, 205.392716)"><g><path d="M 39.046875 -27.894531 C 39.046875 -32.625 36.972656 -36.800781 33.695312 -39.839844 C 30.414062 -42.84375 25.996094 -44.671875 21.265625 -44.671875 L 7.800781 -44.671875 C 6.386719 -44.671875 5.488281 -44.464844 4.972656 -44.085938 C 4.417969 -43.671875 4.246094 -43.117188 4.246094 -42.429688 C 4.246094 -41.910156 4.316406 -41.324219 4.488281 -40.738281 C 4.625 -40.113281 4.695312 -39.492188 4.730469 -38.90625 L 4.730469 -4.902344 C 4.730469 -3.382812 5.316406 -2.035156 6.28125 -1.070312 C 7.25 -0.0703125 8.628906 0.519531 10.148438 0.519531 C 11.667969 0.519531 13.015625 -0.0703125 13.980469 -1.070312 C 14.949219 -2.035156 15.535156 -3.382812 15.535156 -4.902344 L 15.535156 -11.597656 L 21.265625 -11.597656 C 25.996094 -11.597656 30.414062 -13.324219 33.695312 -16.226562 C 36.972656 -19.125 39.046875 -23.199219 39.046875 -27.894531 Z M 28.445312 -27.582031 C 28.445312 -25.617188 27.6875 -23.925781 26.375 -22.75 C 25.0625 -21.578125 23.234375 -20.886719 21.265625 -20.886719 L 15.328125 -20.886719 L 15.328125 -35.003906 L 21.265625 -35.003906 C 23.234375 -35.003906 25.0625 -34.144531 26.375 -32.796875 C 27.6875 -31.414062 28.445312 -29.550781 28.445312 -27.582031 Z M 28.445312 -27.582031 "/></g></g></g></svg>