<svg xmlns="http://www.w3.org/2000/svg" xmlns:xlink="http://www.w3.org/1999/xlink" width="500" zoomAndPan="magnify" viewBox="0 0 375 374.999991" height="500" preserveAspectRatio="xMidYMid meet" version="1.0"><defs><g/><clipPath id="6723a105bc"><path d="M 45.609375 130 L 138.433594 130 L 138.433594 245 L 45.609375 245 Z M 45.609375 130 " clip-rule="nonzero"/></clipPath><clipPath id="2f58d112d0"><path d="M 60.347656 151 L 146 151 L 146 219.082031 L 60.347656 219.082031 Z M 60.347656 151 " clip-rule="nonzero"/></clipPath></defs><g clip-path="url(#6723a105bc)"><path fill="#ff0000" d="M 45.9375 186.941406 C 46.117188 183.265625 48.566406 180.089844 51.582031 178.171875 C 75.351562 162.972656 99.121094 147.757812 122.898438 132.566406 C 125.644531 130.761719 129.136719 129.660156 132.378906 130.675781 C 136.34375 131.808594 138.410156 136.117188 138.253906 140.011719 C 138.289062 171.597656 138.28125 203.179688 138.308594 234.765625 C 138.355469 238.207031 136.910156 242.015625 133.660156 243.597656 C 130.285156 245.34375 126.214844 244.304688 123.175781 242.347656 C 99.386719 227.199219 75.601562 212.03125 51.816406 196.878906 C 48.414062 194.8125 45.640625 191.078125 45.9375 186.941406 Z M 45.9375 186.941406 " fill-opacity="1" fill-rule="nonzero"/></g><g clip-path="url(#2f58d112d0)"><path fill="#030009" d="M 145.765625 182.25 L 144.761719 179.421875 C 144.214844 177.875 142.484375 176.597656 140.933594 176.597656 L 137.378906 176.597656 C 134.734375 169.214844 131.542969 160.277344 130.542969 158.183594 C 129.082031 154.902344 124.433594 153.441406 121.882812 152.710938 C 121.882812 152.710938 117.597656 151.070312 103.285156 151.070312 C 88.972656 151.070312 84.777344 152.710938 84.777344 152.710938 C 81.769531 153.714844 77.578125 155.175781 75.933594 158.273438 C 75.113281 159.824219 71.832031 168.941406 69.1875 176.597656 L 65.726562 176.597656 C 64.175781 176.597656 62.441406 177.875 61.894531 179.421875 L 60.894531 182.25 C 60.347656 183.800781 61.167969 185.074219 62.714844 185.074219 L 66.273438 185.074219 C 65.816406 186.351562 65.542969 187.082031 65.542969 187.082031 C 65.269531 187.535156 65.085938 189.632812 65.085938 190.273438 L 65.085938 216.070312 C 65.085938 217.710938 66.453125 219.078125 68.09375 219.078125 L 79.035156 219.078125 C 80.675781 219.078125 82.042969 217.710938 82.042969 216.070312 L 82.042969 210.601562 L 124.617188 210.601562 L 124.617188 216.070312 C 124.617188 217.710938 125.984375 219.078125 127.625 219.078125 L 138.65625 219.078125 C 140.296875 219.078125 141.664062 217.710938 141.664062 216.070312 L 141.664062 190.273438 C 141.664062 189.726562 141.480469 187.535156 141.207031 187.082031 C 141.207031 187.082031 140.933594 186.351562 140.476562 185.074219 L 143.941406 185.074219 C 145.402344 185.074219 146.222656 183.800781 145.765625 182.25 Z M 82.042969 198.113281 L 78.398438 195.648438 C 71.652344 195.101562 70.832031 197.472656 69.371094 194.921875 L 69.371094 191.820312 C 69.371094 188.8125 71.105469 188.722656 73.019531 188.722656 C 74.839844 188.722656 78.488281 190.273438 80.949219 191.367188 C 83.59375 192.550781 85.507812 191.546875 86.511719 195.46875 C 86.417969 197.292969 85.417969 198.113281 82.042969 198.113281 Z M 75.660156 177.78125 C 77.941406 168.484375 81.769531 162.011719 82.316406 160.460938 C 82.679688 159.367188 81.769531 157.363281 103.375 157.363281 C 124.980469 157.363281 123.796875 160.277344 123.886719 160.371094 C 124.890625 162.46875 128.902344 169.304688 130.996094 177.78125 C 130.996094 177.78125 122.882812 178.875 104.378906 178.875 C 85.871094 178.875 75.660156 177.78125 75.660156 177.78125 Z M 120.242188 195.46875 C 124.523438 190.179688 123.15625 192.550781 125.800781 191.367188 C 128.171875 190.273438 131.910156 188.722656 133.730469 188.722656 C 135.648438 188.722656 137.378906 188.8125 137.378906 191.820312 L 137.378906 194.921875 C 136.011719 197.382812 134.828125 195.195312 127.988281 195.832031 L 124.617188 198.019531 C 121.242188 198.113281 119.054688 196.835938 120.242188 195.46875 Z M 120.242188 195.46875 " fill-opacity="1" fill-rule="nonzero"/></g><g fill="#ffffff" fill-opacity="1"><g transform="translate(150.163559, 170.558221)"><g><path d="M 24.484375 -0.375 C 23.441406 -0.15625 22.113281 0.0195312 20.5 0.15625 C 18.882812 0.300781 17.359375 0.375 15.921875 0.375 C 11.867188 0.375 8.882812 -0.109375 6.96875 -1.078125 C 5.050781 -2.046875 3.773438 -3.632812 3.140625 -5.84375 C 2.515625 -8.050781 2.203125 -11.378906 2.203125 -15.828125 C 2.203125 -20.273438 2.507812 -23.59375 3.125 -25.78125 C 3.738281 -27.976562 5.007812 -29.566406 6.9375 -30.546875 C 8.875 -31.535156 11.867188 -32.03125 15.921875 -32.03125 C 17.328125 -32.03125 18.8125 -31.941406 20.375 -31.765625 C 21.945312 -31.597656 23.253906 -31.394531 24.296875 -31.15625 L 24.296875 -24.484375 C 21.046875 -24.753906 19.003906 -24.890625 18.171875 -24.890625 C 15.960938 -24.890625 14.441406 -24.707031 13.609375 -24.34375 C 12.785156 -23.976562 12.273438 -23.242188 12.078125 -22.140625 C 11.878906 -21.035156 11.78125 -18.929688 11.78125 -15.828125 C 11.78125 -12.734375 11.878906 -10.632812 12.078125 -9.53125 C 12.273438 -8.425781 12.785156 -7.6875 13.609375 -7.3125 C 14.441406 -6.945312 15.960938 -6.765625 18.171875 -6.765625 C 20.285156 -6.765625 22.390625 -6.898438 24.484375 -7.171875 Z M 24.484375 -0.375 "/></g></g></g><g fill="#ffffff" fill-opacity="1"><g transform="translate(175.515757, 170.558221)"><g><path d="M 16.15625 0.375 C 11.613281 0.375 8.382812 -0.09375 6.46875 -1.03125 C 4.550781 -1.96875 3.359375 -3.457031 2.890625 -5.5 C 2.429688 -7.539062 2.203125 -10.984375 2.203125 -15.828125 C 2.203125 -20.671875 2.429688 -24.113281 2.890625 -26.15625 C 3.359375 -28.195312 4.550781 -29.6875 6.46875 -30.625 C 8.382812 -31.5625 11.613281 -32.03125 16.15625 -32.03125 C 20.695312 -32.03125 23.925781 -31.5625 25.84375 -30.625 C 27.757812 -29.6875 28.945312 -28.195312 29.40625 -26.15625 C 29.863281 -24.113281 30.09375 -20.671875 30.09375 -15.828125 C 30.09375 -10.984375 29.863281 -7.539062 29.40625 -5.5 C 28.945312 -3.457031 27.757812 -1.96875 25.84375 -1.03125 C 23.925781 -0.09375 20.695312 0.375 16.15625 0.375 Z M 16.15625 -6.765625 C 17.71875 -6.765625 18.765625 -6.910156 19.296875 -7.203125 C 19.835938 -7.492188 20.175781 -8.195312 20.3125 -9.3125 C 20.445312 -10.4375 20.515625 -12.609375 20.515625 -15.828125 C 20.515625 -19.046875 20.445312 -21.210938 20.3125 -22.328125 C 20.175781 -23.453125 19.835938 -24.160156 19.296875 -24.453125 C 18.765625 -24.742188 17.71875 -24.890625 16.15625 -24.890625 C 14.59375 -24.890625 13.539062 -24.742188 13 -24.453125 C 12.457031 -24.160156 12.117188 -23.460938 11.984375 -22.359375 C 11.847656 -21.253906 11.78125 -19.078125 11.78125 -15.828125 C 11.78125 -12.578125 11.847656 -10.398438 11.984375 -9.296875 C 12.117188 -8.191406 12.457031 -7.492188 13 -7.203125 C 13.539062 -6.910156 14.59375 -6.765625 16.15625 -6.765625 Z M 16.15625 -6.765625 "/></g></g></g><g fill="#ffffff" fill-opacity="1"><g transform="translate(206.895445, 170.558221)"><g><path d="M 28.625 -31.65625 L 28.625 -14.453125 C 28.625 -10.117188 28.382812 -7 27.90625 -5.09375 C 27.425781 -3.195312 26.296875 -1.8125 24.515625 -0.9375 C 22.742188 -0.0625 19.785156 0.375 15.640625 0.375 C 11.535156 0.375 8.582031 -0.0625 6.78125 -0.9375 C 4.988281 -1.8125 3.863281 -3.195312 3.40625 -5.09375 C 2.945312 -7 2.71875 -10.117188 2.71875 -14.453125 L 2.71875 -31.65625 L 12.140625 -31.65625 L 12.140625 -12.703125 C 12.140625 -10.703125 12.203125 -9.332031 12.328125 -8.59375 C 12.453125 -7.863281 12.734375 -7.382812 13.171875 -7.15625 C 13.617188 -6.925781 14.441406 -6.8125 15.640625 -6.8125 C 16.867188 -6.8125 17.707031 -6.925781 18.15625 -7.15625 C 18.601562 -7.382812 18.882812 -7.863281 19 -8.59375 C 19.125 -9.332031 19.1875 -10.703125 19.1875 -12.703125 L 19.1875 -31.65625 Z M 28.625 -31.65625 "/></g></g></g><g fill="#ffffff" fill-opacity="1"><g transform="translate(237.3089, 170.558221)"><g><path d="M 21.125 0 L 12.0625 -16.328125 L 11.828125 -16.328125 L 11.828125 0 L 2.765625 0 L 2.765625 -31.65625 L 12.46875 -31.65625 L 20.5625 -17.484375 L 20.84375 -17.484375 L 20.84375 -31.65625 L 29.90625 -31.65625 L 29.90625 0 Z M 21.125 0 "/></g></g></g><g fill="#ffffff" fill-opacity="1"><g transform="translate(269.056674, 170.558221)"><g><path d="M 8.875 0 L 8.875 -24.15625 L 0.640625 -24.15625 L 0.640625 -31.65625 L 26.640625 -31.65625 L 26.640625 -24.15625 L 18.359375 -24.15625 L 18.359375 0 Z M 8.875 0 "/></g></g></g><g fill="#ffffff" fill-opacity="1"><g transform="translate(150.163559, 234.560489)"><g><path d="M 8.96875 0 L 0.140625 -31.65625 L 9.796875 -31.65625 L 15.140625 -10.21875 L 15.546875 -10.21875 L 20.84375 -31.65625 L 30.328125 -31.65625 L 21.484375 0 Z M 8.96875 0 "/></g></g></g><g fill="#ffffff" fill-opacity="1"><g transform="translate(179.748798, 234.560489)"><g><path d="M 2.859375 0 L 2.859375 -31.65625 L 25.71875 -31.65625 L 25.71875 -24.53125 L 12.28125 -24.53125 L 12.28125 -19.515625 L 23.5625 -19.515625 L 23.5625 -12.46875 L 12.28125 -12.46875 L 12.28125 -7.125 L 25.71875 -7.125 L 25.71875 0 Z M 2.859375 0 "/></g></g></g><g fill="#ffffff" fill-opacity="1"><g transform="translate(206.895435, 234.560489)"><g><path d="M 20.15625 0 L 20.15625 -11.96875 L 12.234375 -11.96875 L 12.234375 0 L 2.765625 0 L 2.765625 -31.65625 L 12.234375 -31.65625 L 12.234375 -19.78125 L 20.15625 -19.78125 L 20.15625 -31.65625 L 29.640625 -31.65625 L 29.640625 0 Z M 20.15625 0 "/></g></g></g><g fill="#ffffff" fill-opacity="1"><g transform="translate(238.367148, 234.560489)"><g><path d="M 2.765625 0 L 2.765625 -31.65625 L 12.234375 -31.65625 L 12.234375 0 Z M 2.765625 0 "/></g></g></g><g fill="#ffffff" fill-opacity="1"><g transform="translate(252.492572, 234.560489)"><g><path d="M 24.484375 -0.375 C 23.441406 -0.15625 22.113281 0.0195312 20.5 0.15625 C 18.882812 0.300781 17.359375 0.375 15.921875 0.375 C 11.867188 0.375 8.882812 -0.109375 6.96875 -1.078125 C 5.050781 -2.046875 3.773438 -3.632812 3.140625 -5.84375 C 2.515625 -8.050781 2.203125 -11.378906 2.203125 -15.828125 C 2.203125 -20.273438 2.507812 -23.59375 3.125 -25.78125 C 3.738281 -27.976562 5.007812 -29.566406 6.9375 -30.546875 C 8.875 -31.535156 11.867188 -32.03125 15.921875 -32.03125 C 17.328125 -32.03125 18.8125 -31.941406 20.375 -31.765625 C 21.945312 -31.597656 23.253906 -31.394531 24.296875 -31.15625 L 24.296875 -24.484375 C 21.046875 -24.753906 19.003906 -24.890625 18.171875 -24.890625 C 15.960938 -24.890625 14.441406 -24.707031 13.609375 -24.34375 C 12.785156 -23.976562 12.273438 -23.242188 12.078125 -22.140625 C 11.878906 -21.035156 11.78125 -18.929688 11.78125 -15.828125 C 11.78125 -12.734375 11.878906 -10.632812 12.078125 -9.53125 C 12.273438 -8.425781 12.785156 -7.6875 13.609375 -7.3125 C 14.441406 -6.945312 15.960938 -6.765625 18.171875 -6.765625 C 20.285156 -6.765625 22.390625 -6.898438 24.484375 -7.171875 Z M 24.484375 -0.375 "/></g></g></g><g fill="#ffffff" fill-opacity="1"><g transform="translate(277.844765, 234.560489)"><g><path d="M 2.859375 0 L 2.859375 -31.65625 L 12.28125 -31.65625 L 12.28125 -7.5 L 23.875 -7.5 L 23.875 0 Z M 2.859375 0 "/></g></g></g><g fill="#ffffff" fill-opacity="1"><g transform="translate(301.724594, 234.560489)"><g><path d="M 2.859375 0 L 2.859375 -31.65625 L 25.71875 -31.65625 L 25.71875 -24.53125 L 12.28125 -24.53125 L 12.28125 -19.515625 L 23.5625 -19.515625 L 23.5625 -12.46875 L 12.28125 -12.46875 L 12.28125 -7.125 L 25.71875 -7.125 L 25.71875 0 Z M 2.859375 0 "/></g></g></g></svg>